<?xml version="1.0" encoding="utf-8" ?>
<svg baseProfile="tiny" height="100%" version="1.2" width="100%" xmlns="http://www.w3.org/2000/svg" xmlns:ev="http://www.w3.org/2001/xml-events" xmlns:xlink="http://www.w3.org/1999/xlink"><defs /><rect fill="none" height="800" stroke="#000" stroke-width="1" width="1000" x="0" y="0" /><circle cx="150.0" cy="50.0" r="12.5" /><circle cx="150.0" cy="150.0" r="12.5" /><circle cx="150.0" cy="250.0" r="12.5" /><circle cx="150.0" cy="350.0" r="12.5" /><circle cx="150.0" cy="450.0" r="12.5" /><circle cx="150.0" cy="550.0" r="12.5" /><circle cx="150.0" cy="650.0" r="12.5" /><circle cx="150.0" cy="750.0" r="12.5" /><circle cx="250.0" cy="50.0" r="12.5" /><circle cx="250.0" cy="150.0" r="12.5" /><circle cx="250.0" cy="250.0" r="12.5" /><circle cx="250.0" cy="350.0" r="12.5" /><circle cx="250.0" cy="450.0" r="12.5" /><rect fill="none" height="50.0" stroke="#000" stroke-dasharray="6.25" stroke-width="3.125" width="50.0" x="225.0" y="525.0" /><circle cx="250.0" cy="650.0" r="12.5" /><circle cx="250.0" cy="750.0" r="12.5" /><circle cx="350.0" cy="50.0" r="12.5" /><circle cx="350.0" cy="150.0" r="12.5" /><circle cx="350.0" cy="250.0" r="12.5" /><circle cx="350.0" cy="350.0" r="12.5" /><circle cx="350.0" cy="450.0" r="12.5" /><circle cx="350.0" cy="550.0" r="12.5" /><circle cx="350.0" cy="650.0" r="12.5" /><circle cx="350.0" cy="750.0" r="12.5" /><circle cx="450.0" cy="50.0" r="12.5" /><circle cx="450.0" cy="150.0" r="12.5" /><circle cx="450.0" cy="250.0" r="12.5" /><circle cx="450.0" cy="350.0" r="12.5" /><circle cx="450.0" cy="450.0" r="12.5" /><circle cx="450.0" cy="550.0" r="12.5" /><circle cx="450.0" cy="650.0" r="12.5" /><circle cx="450.0" cy="750.0" r="12.5" /><circle cx="550.0" cy="50.0" r="12.5" /><rect fill="none" height="50.0" stroke="#000" stroke-dasharray="6.25" stroke-width="3.125" width="50.0" x="525.0" y="125.0" /><circle cx="550.0" cy="250.0" r="12.5" /><circle cx="550.0" cy="350.0" r="12.5" /><rect fill="none" height="50.0" stroke="#000" stroke-dasharray="6.25" stroke-width="3.125" width="50.0" x="525.0" y="425.0" /><circle cx="550.0" cy="550.0" r="12.5" /><rect fill="none" height="50.0" stroke="#000" stroke-dasharray="6.25" stroke-width="3.125" width="50.0" x="525.0" y="625.0" /><circle cx="550.0" cy="750.0" r="12.5" /><circle cx="650.0" cy="50.0" r="12.5" /><circle cx="650.0" cy="150.0" r="12.5" /><circle cx="650.0" cy="250.0" r="12.5" /><circle cx="650.0" cy="350.0" r="12.5" /><circle cx="650.0" cy="450.0" r="12.5" /><circle cx="650.0" cy="550.0" r="12.5" /><circle cx="650.0" cy="650.0" r="12.5" /><circle cx="650.0" cy="750.0" r="12.5" /><circle cx="750.0" cy="50.0" r="12.5" /><circle cx="750.0" cy="150.0" r="12.5" /><circle cx="750.0" cy="250.0" r="12.5" /><circle cx="750.0" cy="350.0" r="12.5" /><circle cx="750.0" cy="450.0" r="12.5" /><circle cx="750.0" cy="550.0" r="12.5" /><circle cx="750.0" cy="650.0" r="12.5" /><circle cx="750.0" cy="750.0" r="12.5" /><circle cx="850.0" cy="50.0" r="12.5" /><circle cx="850.0" cy="150.0" r="12.5" /><circle cx="850.0" cy="250.0" r="12.5" /><circle cx="850.0" cy="350.0" r="12.5" /><circle cx="850.0" cy="450.0" r="12.5" /><circle cx="850.0" cy="550.0" r="12.5" /><circle cx="850.0" cy="650.0" r="12.5" /><circle cx="850.0" cy="750.0" r="12.5" /><rect fill="black" height="25.0" stroke="none" width="25.0" x="37.5" y="37.5" /><rect fill="black" height="25.0" stroke="none" width="25.0" x="37.5" y="137.5" /><rect fill="black" height="25.0" stroke="none" width="25.0" x="37.5" y="237.5" /><rect fill="black" height="25.0" stroke="none" width="25.0" x="37.5" y="737.5" /><rect fill="black" height="25.0" stroke="none" width="25.0" x="937.5" y="37.5" /><rect fill="black" height="25.0" stroke="none" width="25.0" x="937.5" y="237.5" /><rect fill="black" height="25.0" stroke="none" width="25.0" x="937.5" y="337.5" /><rect fill="black" height="25.0" stroke="none" width="25.0" x="937.5" y="637.5" /><line opacity="1" stroke="#000" stroke-width="6.25" x1="162.5" x2="237.5" y1="50.0" y2="50.0" /><line opacity="1" stroke="#000" stroke-width="6.25" x1="237.5" x2="225.0" y1="50.0" y2="37.5" /><line opacity="1" stroke="#000" stroke-width="6.25" x1="237.5" x2="225.0" y1="50.0" y2="62.5" /><line opacity="1" stroke="#000" stroke-width="6.25" x1="150.0" x2="150.0" y1="62.5" y2="137.5" /><line opacity="1" stroke="#000" stroke-width="6.25" x1="150.0" x2="162.5" y1="137.5" y2="125.0" /><line opacity="1" stroke="#000" stroke-width="6.25" x1="150.0" x2="137.5" y1="137.5" y2="125.0" /><line opacity="1" stroke="#000" stroke-width="6.25" x1="262.5" x2="337.5" y1="50.0" y2="50.0" /><line opacity="1" stroke="#000" stroke-width="6.25" x1="337.5" x2="325.0" y1="50.0" y2="37.5" /><line opacity="1" stroke="#000" stroke-width="6.25" x1="337.5" x2="325.0" y1="50.0" y2="62.5" /><line opacity="1" stroke="#000" stroke-width="6.25" x1="250.0" x2="250.0" y1="62.5" y2="137.5" /><line opacity="1" stroke="#000" stroke-width="6.25" x1="250.0" x2="262.5" y1="137.5" y2="125.0" /><line opacity="1" stroke="#000" stroke-width="6.25" x1="250.0" x2="237.5" y1="137.5" y2="125.0" /><line opacity="1" stroke="#000" stroke-width="6.25" x1="362.5" x2="437.5" y1="50.0" y2="50.0" /><line opacity="1" stroke="#000" stroke-width="6.25" x1="437.5" x2="425.0" y1="50.0" y2="37.5" /><line opacity="1" stroke="#000" stroke-width="6.25" x1="437.5" x2="425.0" y1="50.0" y2="62.5" /><line opacity="1" stroke="#000" stroke-width="6.25" x1="350.0" x2="350.0" y1="62.5" y2="137.5" /><line opacity="1" stroke="#000" stroke-width="6.25" x1="350.0" x2="362.5" y1="137.5" y2="125.0" /><line opacity="1" stroke="#000" stroke-width="6.25" x1="350.0" x2="337.5" y1="137.5" y2="125.0" /><line opacity="1" stroke="#000" stroke-width="6.25" x1="462.5" x2="537.5" y1="50.0" y2="50.0" /><line opacity="1" stroke="#000" stroke-width="6.25" x1="537.5" x2="525.0" y1="50.0" y2="37.5" /><line opacity="1" stroke="#000" stroke-width="6.25" x1="537.5" x2="525.0" y1="50.0" y2="62.5" /><line opacity="1" stroke="#000" stroke-width="6.25" x1="450.0" x2="450.0" y1="62.5" y2="137.5" /><line opacity="1" stroke="#000" stroke-width="6.25" x1="450.0" x2="462.5" y1="137.5" y2="125.0" /><line opacity="1" stroke="#000" stroke-width="6.25" x1="450.0" x2="437.5" y1="137.5" y2="125.0" /><line opacity="1" stroke="#000" stroke-width="6.25" x1="562.5" x2="637.5" y1="50.0" y2="50.0" /><line opacity="1" stroke="#000" stroke-width="6.25" x1="637.5" x2="625.0" y1="50.0" y2="37.5" /><line opacity="1" stroke="#000" stroke-width="6.25" x1="637.5" x2="625.0" y1="50.0" y2="62.5" /><line opacity="1" stroke="#000" stroke-width="6.25" x1="550.0" x2="550.0" y1="62.5" y2="137.5" /><line opacity="1" stroke="#000" stroke-width="6.25" x1="550.0" x2="562.5" y1="137.5" y2="125.0" /><line opacity="1" stroke="#000" stroke-width="6.25" x1="550.0" x2="537.5" y1="137.5" y2="125.0" /><line opacity="1" stroke="#000" stroke-width="6.25" x1="662.5" x2="737.5" y1="50.0" y2="50.0" /><line opacity="1" stroke="#000" stroke-width="6.25" x1="737.5" x2="725.0" y1="50.0" y2="37.5" /><line opacity="1" stroke="#000" stroke-width="6.25" x1="737.5" x2="725.0" y1="50.0" y2="62.5" /><line opacity="1" stroke="#000" stroke-width="6.25" x1="650.0" x2="650.0" y1="62.5" y2="137.5" /><line opacity="1" stroke="#000" stroke-width="6.25" x1="650.0" x2="662.5" y1="137.5" y2="125.0" /><line opacity="1" stroke="#000" stroke-width="6.25" x1="650.0" x2="637.5" y1="137.5" y2="125.0" /><line opacity="1" stroke="#000" stroke-width="6.25" x1="762.5" x2="837.5" y1="50.0" y2="50.0" /><line opacity="1" stroke="#000" stroke-width="6.25" x1="837.5" x2="825.0" y1="50.0" y2="37.5" /><line opacity="1" stroke="#000" stroke-width="6.25" x1="837.5" x2="825.0" y1="50.0" y2="62.5" /><line opacity="1" stroke="#000" stroke-width="6.25" x1="250.0" x2="250.0" y1="162.5" y2="237.5" /><line opacity="1" stroke="#000" stroke-width="6.25" x1="250.0" x2="262.5" y1="237.5" y2="225.0" /><line opacity="1" stroke="#000" stroke-width="6.25" x1="250.0" x2="237.5" y1="237.5" y2="225.0" /><line opacity="1" stroke="#000" stroke-width="6.25" x1="362.5" x2="437.5" y1="150.0" y2="150.0" /><line opacity="1" stroke="#000" stroke-width="6.25" x1="437.5" x2="425.0" y1="150.0" y2="137.5" /><line opacity="1" stroke="#000" stroke-width="6.25" x1="437.5" x2="425.0" y1="150.0" y2="162.5" /><line opacity="1" stroke="#000" stroke-width="6.25" x1="350.0" x2="350.0" y1="162.5" y2="237.5" /><line opacity="1" stroke="#000" stroke-width="6.25" x1="350.0" x2="362.5" y1="237.5" y2="225.0" /><line opacity="1" stroke="#000" stroke-width="6.25" x1="350.0" x2="337.5" y1="237.5" y2="225.0" /><line opacity="1" stroke="#000" stroke-width="6.25" x1="450.0" x2="450.0" y1="162.5" y2="237.5" /><line opacity="1" stroke="#000" stroke-width="6.25" x1="450.0" x2="462.5" y1="237.5" y2="225.0" /><line opacity="1" stroke="#000" stroke-width="6.25" x1="450.0" x2="437.5" y1="237.5" y2="225.0" /><line opacity="1" stroke="#000" stroke-width="6.25" x1="562.5" x2="637.5" y1="150.0" y2="150.0" /><line opacity="1" stroke="#000" stroke-width="6.25" x1="637.5" x2="625.0" y1="150.0" y2="137.5" /><line opacity="1" stroke="#000" stroke-width="6.25" x1="637.5" x2="625.0" y1="150.0" y2="162.5" /><line opacity="1" stroke="#000" stroke-width="6.25" x1="550.0" x2="550.0" y1="162.5" y2="237.5" /><line opacity="1" stroke="#000" stroke-width="6.25" x1="550.0" x2="562.5" y1="237.5" y2="225.0" /><line opacity="1" stroke="#000" stroke-width="6.25" x1="550.0" x2="537.5" y1="237.5" y2="225.0" /><line opacity="1" stroke="#000" stroke-width="6.25" x1="662.5" x2="737.5" y1="150.0" y2="150.0" /><line opacity="1" stroke="#000" stroke-width="6.25" x1="737.5" x2="725.0" y1="150.0" y2="137.5" /><line opacity="1" stroke="#000" stroke-width="6.25" x1="737.5" x2="725.0" y1="150.0" y2="162.5" /><line opacity="1" stroke="#000" stroke-width="6.25" x1="650.0" x2="650.0" y1="162.5" y2="237.5" /><line opacity="1" stroke="#000" stroke-width="6.25" x1="650.0" x2="662.5" y1="237.5" y2="225.0" /><line opacity="1" stroke="#000" stroke-width="6.25" x1="650.0" x2="637.5" y1="237.5" y2="225.0" /><line opacity="1" stroke="#000" stroke-width="6.25" x1="762.5" x2="837.5" y1="150.0" y2="150.0" /><line opacity="1" stroke="#000" stroke-width="6.25" x1="837.5" x2="825.0" y1="150.0" y2="137.5" /><line opacity="1" stroke="#000" stroke-width="6.25" x1="837.5" x2="825.0" y1="150.0" y2="162.5" /><line opacity="1" stroke="#000" stroke-width="6.25" x1="150.0" x2="150.0" y1="162.5" y2="237.5" /><line opacity="1" stroke="#000" stroke-width="6.25" x1="150.0" x2="162.5" y1="237.5" y2="225.0" /><line opacity="1" stroke="#000" stroke-width="6.25" x1="150.0" x2="137.5" y1="237.5" y2="225.0" /><line opacity="1" stroke="#000" stroke-width="6.25" x1="162.5" x2="237.5" y1="250.0" y2="250.0" /><line opacity="1" stroke="#000" stroke-width="6.25" x1="237.5" x2="225.0" y1="250.0" y2="237.5" /><line opacity="1" stroke="#000" stroke-width="6.25" x1="237.5" x2="225.0" y1="250.0" y2="262.5" /><line opacity="1" stroke="#000" stroke-width="6.25" x1="150.0" x2="150.0" y1="262.5" y2="337.5" /><line opacity="1" stroke="#000" stroke-width="6.25" x1="150.0" x2="162.5" y1="337.5" y2="325.0" /><line opacity="1" stroke="#000" stroke-width="6.25" x1="150.0" x2="137.5" y1="337.5" y2="325.0" /><line opacity="1" stroke="#000" stroke-width="6.25" x1="250.0" x2="250.0" y1="262.5" y2="337.5" /><line opacity="1" stroke="#000" stroke-width="6.25" x1="250.0" x2="262.5" y1="337.5" y2="325.0" /><line opacity="1" stroke="#000" stroke-width="6.25" x1="250.0" x2="237.5" y1="337.5" y2="325.0" /><line opacity="1" stroke="#000" stroke-width="6.25" x1="362.5" x2="437.5" y1="250.0" y2="250.0" /><line opacity="1" stroke="#000" stroke-width="6.25" x1="437.5" x2="425.0" y1="250.0" y2="237.5" /><line opacity="1" stroke="#000" stroke-width="6.25" x1="437.5" x2="425.0" y1="250.0" y2="262.5" /><line opacity="1" stroke="#000" stroke-width="6.25" x1="350.0" x2="350.0" y1="262.5" y2="337.5" /><line opacity="1" stroke="#000" stroke-width="6.25" x1="350.0" x2="362.5" y1="337.5" y2="325.0" /><line opacity="1" stroke="#000" stroke-width="6.25" x1="350.0" x2="337.5" y1="337.5" y2="325.0" /><line opacity="1" stroke="#000" stroke-width="6.25" x1="462.5" x2="537.5" y1="250.0" y2="250.0" /><line opacity="1" stroke="#000" stroke-width="6.25" x1="537.5" x2="525.0" y1="250.0" y2="237.5" /><line opacity="1" stroke="#000" stroke-width="6.25" x1="537.5" x2="525.0" y1="250.0" y2="262.5" /><line opacity="1" stroke="#000" stroke-width="6.25" x1="450.0" x2="450.0" y1="262.5" y2="337.5" /><line opacity="1" stroke="#000" stroke-width="6.25" x1="450.0" x2="462.5" y1="337.5" y2="325.0" /><line opacity="1" stroke="#000" stroke-width="6.25" x1="450.0" x2="437.5" y1="337.5" y2="325.0" /><line opacity="1" stroke="#000" stroke-width="6.25" x1="550.0" x2="550.0" y1="262.5" y2="337.5" /><line opacity="1" stroke="#000" stroke-width="6.25" x1="550.0" x2="562.5" y1="337.5" y2="325.0" /><line opacity="1" stroke="#000" stroke-width="6.25" x1="550.0" x2="537.5" y1="337.5" y2="325.0" /><line opacity="1" stroke="#000" stroke-width="6.25" x1="662.5" x2="737.5" y1="250.0" y2="250.0" /><line opacity="1" stroke="#000" stroke-width="6.25" x1="737.5" x2="725.0" y1="250.0" y2="237.5" /><line opacity="1" stroke="#000" stroke-width="6.25" x1="737.5" x2="725.0" y1="250.0" y2="262.5" /><line opacity="1" stroke="#000" stroke-width="6.25" x1="650.0" x2="650.0" y1="262.5" y2="337.5" /><line opacity="1" stroke="#000" stroke-width="6.25" x1="650.0" x2="662.5" y1="337.5" y2="325.0" /><line opacity="1" stroke="#000" stroke-width="6.25" x1="650.0" x2="637.5" y1="337.5" y2="325.0" /><line opacity="1" stroke="#000" stroke-width="6.25" x1="750.0" x2="750.0" y1="262.5" y2="337.5" /><line opacity="1" stroke="#000" stroke-width="6.25" x1="750.0" x2="762.5" y1="337.5" y2="325.0" /><line opacity="1" stroke="#000" stroke-width="6.25" x1="750.0" x2="737.5" y1="337.5" y2="325.0" /><line opacity="1" stroke="#000" stroke-width="6.25" x1="162.5" x2="237.5" y1="350.0" y2="350.0" /><line opacity="1" stroke="#000" stroke-width="6.25" x1="237.5" x2="225.0" y1="350.0" y2="337.5" /><line opacity="1" stroke="#000" stroke-width="6.25" x1="237.5" x2="225.0" y1="350.0" y2="362.5" /><line opacity="1" stroke="#000" stroke-width="6.25" x1="150.0" x2="150.0" y1="362.5" y2="437.5" /><line opacity="1" stroke="#000" stroke-width="6.25" x1="150.0" x2="162.5" y1="437.5" y2="425.0" /><line opacity="1" stroke="#000" stroke-width="6.25" x1="150.0" x2="137.5" y1="437.5" y2="425.0" /><line opacity="1" stroke="#000" stroke-width="6.25" x1="362.5" x2="437.5" y1="350.0" y2="350.0" /><line opacity="1" stroke="#000" stroke-width="6.25" x1="437.5" x2="425.0" y1="350.0" y2="337.5" /><line opacity="1" stroke="#000" stroke-width="6.25" x1="437.5" x2="425.0" y1="350.0" y2="362.5" /><line opacity="1" stroke="#000" stroke-width="6.25" x1="350.0" x2="350.0" y1="362.5" y2="437.5" /><line opacity="1" stroke="#000" stroke-width="6.25" x1="350.0" x2="362.5" y1="437.5" y2="425.0" /><line opacity="1" stroke="#000" stroke-width="6.25" x1="350.0" x2="337.5" y1="437.5" y2="425.0" /><line opacity="1" stroke="#000" stroke-width="6.25" x1="450.0" x2="450.0" y1="362.5" y2="437.5" /><line opacity="1" stroke="#000" stroke-width="6.25" x1="450.0" x2="462.5" y1="437.5" y2="425.0" /><line opacity="1" stroke="#000" stroke-width="6.25" x1="450.0" x2="437.5" y1="437.5" y2="425.0" /><line opacity="1" stroke="#000" stroke-width="6.25" x1="562.5" x2="637.5" y1="350.0" y2="350.0" /><line opacity="1" stroke="#000" stroke-width="6.25" x1="637.5" x2="625.0" y1="350.0" y2="337.5" /><line opacity="1" stroke="#000" stroke-width="6.25" x1="637.5" x2="625.0" y1="350.0" y2="362.5" /><line opacity="1" stroke="#000" stroke-width="6.25" x1="550.0" x2="550.0" y1="362.5" y2="437.5" /><line opacity="1" stroke="#000" stroke-width="6.25" x1="550.0" x2="562.5" y1="437.5" y2="425.0" /><line opacity="1" stroke="#000" stroke-width="6.25" x1="550.0" x2="537.5" y1="437.5" y2="425.0" /><line opacity="1" stroke="#000" stroke-width="6.25" x1="662.5" x2="737.5" y1="350.0" y2="350.0" /><line opacity="1" stroke="#000" stroke-width="6.25" x1="737.5" x2="725.0" y1="350.0" y2="337.5" /><line opacity="1" stroke="#000" stroke-width="6.25" x1="737.5" x2="725.0" y1="350.0" y2="362.5" /><line opacity="1" stroke="#000" stroke-width="6.25" x1="650.0" x2="650.0" y1="362.5" y2="437.5" /><line opacity="1" stroke="#000" stroke-width="6.25" x1="650.0" x2="662.5" y1="437.5" y2="425.0" /><line opacity="1" stroke="#000" stroke-width="6.25" x1="650.0" x2="637.5" y1="437.5" y2="425.0" /><line opacity="1" stroke="#000" stroke-width="6.25" x1="762.5" x2="837.5" y1="350.0" y2="350.0" /><line opacity="1" stroke="#000" stroke-width="6.25" x1="837.5" x2="825.0" y1="350.0" y2="337.5" /><line opacity="1" stroke="#000" stroke-width="6.25" x1="837.5" x2="825.0" y1="350.0" y2="362.5" /><line opacity="1" stroke="#000" stroke-width="6.25" x1="750.0" x2="750.0" y1="362.5" y2="437.5" /><line opacity="1" stroke="#000" stroke-width="6.25" x1="750.0" x2="762.5" y1="437.5" y2="425.0" /><line opacity="1" stroke="#000" stroke-width="6.25" x1="750.0" x2="737.5" y1="437.5" y2="425.0" /><line opacity="1" stroke="#000" stroke-width="6.25" x1="162.5" x2="237.5" y1="450.0" y2="450.0" /><line opacity="1" stroke="#000" stroke-width="6.25" x1="237.5" x2="225.0" y1="450.0" y2="437.5" /><line opacity="1" stroke="#000" stroke-width="6.25" x1="237.5" x2="225.0" y1="450.0" y2="462.5" /><line opacity="1" stroke="#000" stroke-width="6.25" x1="150.0" x2="150.0" y1="462.5" y2="537.5" /><line opacity="1" stroke="#000" stroke-width="6.25" x1="150.0" x2="162.5" y1="537.5" y2="525.0" /><line opacity="1" stroke="#000" stroke-width="6.25" x1="150.0" x2="137.5" y1="537.5" y2="525.0" /><line opacity="1" stroke="#000" stroke-width="6.25" x1="262.5" x2="337.5" y1="450.0" y2="450.0" /><line opacity="1" stroke="#000" stroke-width="6.25" x1="337.5" x2="325.0" y1="450.0" y2="437.5" /><line opacity="1" stroke="#000" stroke-width="6.25" x1="337.5" x2="325.0" y1="450.0" y2="462.5" /><line opacity="1" stroke="#000" stroke-width="6.25" x1="250.0" x2="250.0" y1="462.5" y2="537.5" /><line opacity="1" stroke="#000" stroke-width="6.25" x1="250.0" x2="262.5" y1="537.5" y2="525.0" /><line opacity="1" stroke="#000" stroke-width="6.25" x1="250.0" x2="237.5" y1="537.5" y2="525.0" /><line opacity="1" stroke="#000" stroke-width="6.25" x1="362.5" x2="437.5" y1="450.0" y2="450.0" /><line opacity="1" stroke="#000" stroke-width="6.25" x1="437.5" x2="425.0" y1="450.0" y2="437.5" /><line opacity="1" stroke="#000" stroke-width="6.25" x1="437.5" x2="425.0" y1="450.0" y2="462.5" /><line opacity="1" stroke="#000" stroke-width="6.25" x1="462.5" x2="537.5" y1="450.0" y2="450.0" /><line opacity="1" stroke="#000" stroke-width="6.25" x1="537.5" x2="525.0" y1="450.0" y2="437.5" /><line opacity="1" stroke="#000" stroke-width="6.25" x1="537.5" x2="525.0" y1="450.0" y2="462.5" /><line opacity="1" stroke="#000" stroke-width="6.25" x1="450.0" x2="450.0" y1="462.5" y2="537.5" /><line opacity="1" stroke="#000" stroke-width="6.25" x1="450.0" x2="462.5" y1="537.5" y2="525.0" /><line opacity="1" stroke="#000" stroke-width="6.25" x1="450.0" x2="437.5" y1="537.5" y2="525.0" /><line opacity="1" stroke="#000" stroke-width="6.25" x1="562.5" x2="637.5" y1="450.0" y2="450.0" /><line opacity="1" stroke="#000" stroke-width="6.25" x1="637.5" x2="625.0" y1="450.0" y2="437.5" /><line opacity="1" stroke="#000" stroke-width="6.25" x1="637.5" x2="625.0" y1="450.0" y2="462.5" /><line opacity="1" stroke="#000" stroke-width="6.25" x1="550.0" x2="550.0" y1="462.5" y2="537.5" /><line opacity="1" stroke="#000" stroke-width="6.25" x1="550.0" x2="562.5" y1="537.5" y2="525.0" /><line opacity="1" stroke="#000" stroke-width="6.25" x1="550.0" x2="537.5" y1="537.5" y2="525.0" /><line opacity="1" stroke="#000" stroke-width="6.25" x1="662.5" x2="737.5" y1="450.0" y2="450.0" /><line opacity="1" stroke="#000" stroke-width="6.25" x1="737.5" x2="725.0" y1="450.0" y2="437.5" /><line opacity="1" stroke="#000" stroke-width="6.25" x1="737.5" x2="725.0" y1="450.0" y2="462.5" /><line opacity="1" stroke="#000" stroke-width="6.25" x1="650.0" x2="650.0" y1="462.5" y2="537.5" /><line opacity="1" stroke="#000" stroke-width="6.25" x1="650.0" x2="662.5" y1="537.5" y2="525.0" /><line opacity="1" stroke="#000" stroke-width="6.25" x1="650.0" x2="637.5" y1="537.5" y2="525.0" /><line opacity="1" stroke="#000" stroke-width="6.25" x1="762.5" x2="837.5" y1="450.0" y2="450.0" /><line opacity="1" stroke="#000" stroke-width="6.25" x1="837.5" x2="825.0" y1="450.0" y2="437.5" /><line opacity="1" stroke="#000" stroke-width="6.25" x1="837.5" x2="825.0" y1="450.0" y2="462.5" /><line opacity="1" stroke="#000" stroke-width="6.25" x1="750.0" x2="750.0" y1="462.5" y2="537.5" /><line opacity="1" stroke="#000" stroke-width="6.25" x1="750.0" x2="762.5" y1="537.5" y2="525.0" /><line opacity="1" stroke="#000" stroke-width="6.25" x1="750.0" x2="737.5" y1="537.5" y2="525.0" /><line opacity="1" stroke="#000" stroke-width="6.25" x1="150.0" x2="150.0" y1="562.5" y2="637.5" /><line opacity="1" stroke="#000" stroke-width="6.25" x1="150.0" x2="162.5" y1="637.5" y2="625.0" /><line opacity="1" stroke="#000" stroke-width="6.25" x1="150.0" x2="137.5" y1="637.5" y2="625.0" /><line opacity="1" stroke="#000" stroke-width="6.25" x1="262.5" x2="337.5" y1="550.0" y2="550.0" /><line opacity="1" stroke="#000" stroke-width="6.25" x1="337.5" x2="325.0" y1="550.0" y2="537.5" /><line opacity="1" stroke="#000" stroke-width="6.25" x1="337.5" x2="325.0" y1="550.0" y2="562.5" /><line opacity="1" stroke="#000" stroke-width="6.25" x1="250.0" x2="250.0" y1="562.5" y2="637.5" /><line opacity="1" stroke="#000" stroke-width="6.25" x1="250.0" x2="262.5" y1="637.5" y2="625.0" /><line opacity="1" stroke="#000" stroke-width="6.25" x1="250.0" x2="237.5" y1="637.5" y2="625.0" /><line opacity="1" stroke="#000" stroke-width="6.25" x1="362.5" x2="437.5" y1="550.0" y2="550.0" /><line opacity="1" stroke="#000" stroke-width="6.25" x1="437.5" x2="425.0" y1="550.0" y2="537.5" /><line opacity="1" stroke="#000" stroke-width="6.25" x1="437.5" x2="425.0" y1="550.0" y2="562.5" /><line opacity="1" stroke="#000" stroke-width="6.25" x1="350.0" x2="350.0" y1="562.5" y2="637.5" /><line opacity="1" stroke="#000" stroke-width="6.25" x1="350.0" x2="362.5" y1="637.5" y2="625.0" /><line opacity="1" stroke="#000" stroke-width="6.25" x1="350.0" x2="337.5" y1="637.5" y2="625.0" /><line opacity="1" stroke="#000" stroke-width="6.25" x1="462.5" x2="537.5" y1="550.0" y2="550.0" /><line opacity="1" stroke="#000" stroke-width="6.25" x1="537.5" x2="525.0" y1="550.0" y2="537.5" /><line opacity="1" stroke="#000" stroke-width="6.25" x1="537.5" x2="525.0" y1="550.0" y2="562.5" /><line opacity="1" stroke="#000" stroke-width="6.25" x1="450.0" x2="450.0" y1="562.5" y2="637.5" /><line opacity="1" stroke="#000" stroke-width="6.25" x1="450.0" x2="462.5" y1="637.5" y2="625.0" /><line opacity="1" stroke="#000" stroke-width="6.25" x1="450.0" x2="437.5" y1="637.5" y2="625.0" /><line opacity="1" stroke="#000" stroke-width="6.25" x1="562.5" x2="637.5" y1="550.0" y2="550.0" /><line opacity="1" stroke="#000" stroke-width="6.25" x1="637.5" x2="625.0" y1="550.0" y2="537.5" /><line opacity="1" stroke="#000" stroke-width="6.25" x1="637.5" x2="625.0" y1="550.0" y2="562.5" /><line opacity="1" stroke="#000" stroke-width="6.25" x1="550.0" x2="550.0" y1="562.5" y2="637.5" /><line opacity="1" stroke="#000" stroke-width="6.25" x1="550.0" x2="562.5" y1="637.5" y2="625.0" /><line opacity="1" stroke="#000" stroke-width="6.25" x1="550.0" x2="537.5" y1="637.5" y2="625.0" /><line opacity="1" stroke="#000" stroke-width="6.25" x1="662.5" x2="737.5" y1="550.0" y2="550.0" /><line opacity="1" stroke="#000" stroke-width="6.25" x1="737.5" x2="725.0" y1="550.0" y2="537.5" /><line opacity="1" stroke="#000" stroke-width="6.25" x1="737.5" x2="725.0" y1="550.0" y2="562.5" /><line opacity="1" stroke="#000" stroke-width="6.25" x1="650.0" x2="650.0" y1="562.5" y2="637.5" /><line opacity="1" stroke="#000" stroke-width="6.25" x1="650.0" x2="662.5" y1="637.5" y2="625.0" /><line opacity="1" stroke="#000" stroke-width="6.25" x1="650.0" x2="637.5" y1="637.5" y2="625.0" /><line opacity="1" stroke="#000" stroke-width="6.25" x1="762.5" x2="837.5" y1="550.0" y2="550.0" /><line opacity="1" stroke="#000" stroke-width="6.25" x1="837.5" x2="825.0" y1="550.0" y2="537.5" /><line opacity="1" stroke="#000" stroke-width="6.25" x1="837.5" x2="825.0" y1="550.0" y2="562.5" /><line opacity="1" stroke="#000" stroke-width="6.25" x1="750.0" x2="750.0" y1="562.5" y2="637.5" /><line opacity="1" stroke="#000" stroke-width="6.25" x1="750.0" x2="762.5" y1="637.5" y2="625.0" /><line opacity="1" stroke="#000" stroke-width="6.25" x1="750.0" x2="737.5" y1="637.5" y2="625.0" /><line opacity="1" stroke="#000" stroke-width="6.25" x1="162.5" x2="237.5" y1="650.0" y2="650.0" /><line opacity="1" stroke="#000" stroke-width="6.25" x1="237.5" x2="225.0" y1="650.0" y2="637.5" /><line opacity="1" stroke="#000" stroke-width="6.25" x1="237.5" x2="225.0" y1="650.0" y2="662.5" /><line opacity="1" stroke="#000" stroke-width="6.25" x1="150.0" x2="150.0" y1="662.5" y2="737.5" /><line opacity="1" stroke="#000" stroke-width="6.25" x1="150.0" x2="162.5" y1="737.5" y2="725.0" /><line opacity="1" stroke="#000" stroke-width="6.25" x1="150.0" x2="137.5" y1="737.5" y2="725.0" /><line opacity="1" stroke="#000" stroke-width="6.25" x1="250.0" x2="250.0" y1="662.5" y2="737.5" /><line opacity="1" stroke="#000" stroke-width="6.25" x1="250.0" x2="262.5" y1="737.5" y2="725.0" /><line opacity="1" stroke="#000" stroke-width="6.25" x1="250.0" x2="237.5" y1="737.5" y2="725.0" /><line opacity="1" stroke="#000" stroke-width="6.25" x1="362.5" x2="437.5" y1="650.0" y2="650.0" /><line opacity="1" stroke="#000" stroke-width="6.25" x1="437.5" x2="425.0" y1="650.0" y2="637.5" /><line opacity="1" stroke="#000" stroke-width="6.25" x1="437.5" x2="425.0" y1="650.0" y2="662.5" /><line opacity="1" stroke="#000" stroke-width="6.25" x1="350.0" x2="350.0" y1="662.5" y2="737.5" /><line opacity="1" stroke="#000" stroke-width="6.25" x1="350.0" x2="362.5" y1="737.5" y2="725.0" /><line opacity="1" stroke="#000" stroke-width="6.25" x1="350.0" x2="337.5" y1="737.5" y2="725.0" /><line opacity="1" stroke="#000" stroke-width="6.25" x1="462.5" x2="537.5" y1="650.0" y2="650.0" /><line opacity="1" stroke="#000" stroke-width="6.25" x1="537.5" x2="525.0" y1="650.0" y2="637.5" /><line opacity="1" stroke="#000" stroke-width="6.25" x1="537.5" x2="525.0" y1="650.0" y2="662.5" /><line opacity="1" stroke="#000" stroke-width="6.25" x1="450.0" x2="450.0" y1="662.5" y2="737.5" /><line opacity="1" stroke="#000" stroke-width="6.25" x1="450.0" x2="462.5" y1="737.5" y2="725.0" /><line opacity="1" stroke="#000" stroke-width="6.25" x1="450.0" x2="437.5" y1="737.5" y2="725.0" /><line opacity="1" stroke="#000" stroke-width="6.25" x1="562.5" x2="637.5" y1="650.0" y2="650.0" /><line opacity="1" stroke="#000" stroke-width="6.25" x1="637.5" x2="625.0" y1="650.0" y2="637.5" /><line opacity="1" stroke="#000" stroke-width="6.25" x1="637.5" x2="625.0" y1="650.0" y2="662.5" /><line opacity="1" stroke="#000" stroke-width="6.25" x1="550.0" x2="550.0" y1="662.5" y2="737.5" /><line opacity="1" stroke="#000" stroke-width="6.25" x1="550.0" x2="562.5" y1="737.5" y2="725.0" /><line opacity="1" stroke="#000" stroke-width="6.25" x1="550.0" x2="537.5" y1="737.5" y2="725.0" /><line opacity="1" stroke="#000" stroke-width="6.25" x1="662.5" x2="737.5" y1="650.0" y2="650.0" /><line opacity="1" stroke="#000" stroke-width="6.25" x1="737.5" x2="725.0" y1="650.0" y2="637.5" /><line opacity="1" stroke="#000" stroke-width="6.25" x1="737.5" x2="725.0" y1="650.0" y2="662.5" /><line opacity="1" stroke="#000" stroke-width="6.25" x1="650.0" x2="650.0" y1="662.5" y2="737.5" /><line opacity="1" stroke="#000" stroke-width="6.25" x1="650.0" x2="662.5" y1="737.5" y2="725.0" /><line opacity="1" stroke="#000" stroke-width="6.25" x1="650.0" x2="637.5" y1="737.5" y2="725.0" /><line opacity="1" stroke="#000" stroke-width="6.25" x1="762.5" x2="837.5" y1="650.0" y2="650.0" /><line opacity="1" stroke="#000" stroke-width="6.25" x1="837.5" x2="825.0" y1="650.0" y2="637.5" /><line opacity="1" stroke="#000" stroke-width="6.25" x1="837.5" x2="825.0" y1="650.0" y2="662.5" /><line opacity="1" stroke="#000" stroke-width="6.25" x1="750.0" x2="750.0" y1="662.5" y2="737.5" /><line opacity="1" stroke="#000" stroke-width="6.25" x1="750.0" x2="762.5" y1="737.5" y2="725.0" /><line opacity="1" stroke="#000" stroke-width="6.25" x1="750.0" x2="737.5" y1="737.5" y2="725.0" /><line opacity="1" stroke="#000" stroke-width="6.25" x1="850.0" x2="850.0" y1="62.5" y2="137.5" /><line opacity="1" stroke="#000" stroke-width="6.25" x1="850.0" x2="862.5" y1="137.5" y2="125.0" /><line opacity="1" stroke="#000" stroke-width="6.25" x1="850.0" x2="837.5" y1="137.5" y2="125.0" /><line opacity="1" stroke="#000" stroke-width="6.25" x1="850.0" x2="850.0" y1="162.5" y2="237.5" /><line opacity="1" stroke="#000" stroke-width="6.25" x1="850.0" x2="862.5" y1="237.5" y2="225.0" /><line opacity="1" stroke="#000" stroke-width="6.25" x1="850.0" x2="837.5" y1="237.5" y2="225.0" /><line opacity="1" stroke="#000" stroke-width="6.25" x1="850.0" x2="850.0" y1="262.5" y2="337.5" /><line opacity="1" stroke="#000" stroke-width="6.25" x1="850.0" x2="862.5" y1="337.5" y2="325.0" /><line opacity="1" stroke="#000" stroke-width="6.25" x1="850.0" x2="837.5" y1="337.5" y2="325.0" /><line opacity="1" stroke="#000" stroke-width="6.25" x1="850.0" x2="850.0" y1="362.5" y2="437.5" /><line opacity="1" stroke="#000" stroke-width="6.25" x1="850.0" x2="862.5" y1="437.5" y2="425.0" /><line opacity="1" stroke="#000" stroke-width="6.25" x1="850.0" x2="837.5" y1="437.5" y2="425.0" /><line opacity="1" stroke="#000" stroke-width="6.25" x1="850.0" x2="850.0" y1="462.5" y2="537.5" /><line opacity="1" stroke="#000" stroke-width="6.25" x1="850.0" x2="862.5" y1="537.5" y2="525.0" /><line opacity="1" stroke="#000" stroke-width="6.25" x1="850.0" x2="837.5" y1="537.5" y2="525.0" /><line opacity="1" stroke="#000" stroke-width="6.25" x1="850.0" x2="850.0" y1="562.5" y2="637.5" /><line opacity="1" stroke="#000" stroke-width="6.25" x1="850.0" x2="862.5" y1="637.5" y2="625.0" /><line opacity="1" stroke="#000" stroke-width="6.25" x1="850.0" x2="837.5" y1="637.5" y2="625.0" /><line opacity="1" stroke="#000" stroke-width="6.25" x1="850.0" x2="850.0" y1="662.5" y2="737.5" /><line opacity="1" stroke="#000" stroke-width="6.25" x1="850.0" x2="862.5" y1="737.5" y2="725.0" /><line opacity="1" stroke="#000" stroke-width="6.25" x1="850.0" x2="837.5" y1="737.5" y2="725.0" /><line opacity="1" stroke="#000" stroke-width="6.25" x1="162.5" x2="237.5" y1="750.0" y2="750.0" /><line opacity="1" stroke="#000" stroke-width="6.25" x1="237.5" x2="225.0" y1="750.0" y2="737.5" /><line opacity="1" stroke="#000" stroke-width="6.25" x1="237.5" x2="225.0" y1="750.0" y2="762.5" /><line opacity="1" stroke="#000" stroke-width="6.25" x1="262.5" x2="337.5" y1="750.0" y2="750.0" /><line opacity="1" stroke="#000" stroke-width="6.25" x1="337.5" x2="325.0" y1="750.0" y2="737.5" /><line opacity="1" stroke="#000" stroke-width="6.25" x1="337.5" x2="325.0" y1="750.0" y2="762.5" /><line opacity="1" stroke="#000" stroke-width="6.25" x1="462.5" x2="537.5" y1="750.0" y2="750.0" /><line opacity="1" stroke="#000" stroke-width="6.25" x1="537.5" x2="525.0" y1="750.0" y2="737.5" /><line opacity="1" stroke="#000" stroke-width="6.25" x1="537.5" x2="525.0" y1="750.0" y2="762.5" /><line opacity="1" stroke="#000" stroke-width="6.25" x1="662.5" x2="737.5" y1="750.0" y2="750.0" /><line opacity="1" stroke="#000" stroke-width="6.25" x1="737.5" x2="725.0" y1="750.0" y2="737.5" /><line opacity="1" stroke="#000" stroke-width="6.25" x1="737.5" x2="725.0" y1="750.0" y2="762.5" /><line opacity="1" stroke="#000" stroke-width="6.25" x1="762.5" x2="837.5" y1="750.0" y2="750.0" /><line opacity="1" stroke="#000" stroke-width="6.25" x1="837.5" x2="825.0" y1="750.0" y2="737.5" /><line opacity="1" stroke="#000" stroke-width="6.25" x1="837.5" x2="825.0" y1="750.0" y2="762.5" /><line opacity="1" stroke="#000" stroke-width="6.25" x1="62.5" x2="137.5" y1="50.0" y2="50.0" /><line opacity="1" stroke="#000" stroke-width="6.25" x1="137.5" x2="125.0" y1="50.0" y2="37.5" /><line opacity="1" stroke="#000" stroke-width="6.25" x1="137.5" x2="125.0" y1="50.0" y2="62.5" /><line opacity="1" stroke="#000" stroke-width="6.25" x1="62.5" x2="137.5" y1="150.0" y2="150.0" /><line opacity="1" stroke="#000" stroke-width="6.25" x1="137.5" x2="125.0" y1="150.0" y2="137.5" /><line opacity="1" stroke="#000" stroke-width="6.25" x1="137.5" x2="125.0" y1="150.0" y2="162.5" /><line opacity="1" stroke="#000" stroke-width="6.25" x1="62.5" x2="137.5" y1="250.0" y2="250.0" /><line opacity="1" stroke="#000" stroke-width="6.25" x1="137.5" x2="125.0" y1="250.0" y2="237.5" /><line opacity="1" stroke="#000" stroke-width="6.25" x1="137.5" x2="125.0" y1="250.0" y2="262.5" /><line opacity="1" stroke="#000" stroke-width="6.25" x1="62.5" x2="137.5" y1="750.0" y2="750.0" /><line opacity="1" stroke="#000" stroke-width="6.25" x1="137.5" x2="125.0" y1="750.0" y2="737.5" /><line opacity="1" stroke="#000" stroke-width="6.25" x1="137.5" x2="125.0" y1="750.0" y2="762.5" /><line opacity="1" stroke="#000" stroke-width="6.25" x1="862.5" x2="937.5" y1="50.0" y2="50.0" /><line opacity="1" stroke="#000" stroke-width="6.25" x1="937.5" x2="925.0" y1="50.0" y2="37.5" /><line opacity="1" stroke="#000" stroke-width="6.25" x1="937.5" x2="925.0" y1="50.0" y2="62.5" /><line opacity="1" stroke="#000" stroke-width="6.25" x1="862.5" x2="937.5" y1="250.0" y2="250.0" /><line opacity="1" stroke="#000" stroke-width="6.25" x1="937.5" x2="925.0" y1="250.0" y2="237.5" /><line opacity="1" stroke="#000" stroke-width="6.25" x1="937.5" x2="925.0" y1="250.0" y2="262.5" /><line opacity="1" stroke="#000" stroke-width="6.25" x1="862.5" x2="937.5" y1="350.0" y2="350.0" /><line opacity="1" stroke="#000" stroke-width="6.25" x1="937.5" x2="925.0" y1="350.0" y2="337.5" /><line opacity="1" stroke="#000" stroke-width="6.25" x1="937.5" x2="925.0" y1="350.0" y2="362.5" /><line opacity="1" stroke="#000" stroke-width="6.25" x1="862.5" x2="937.5" y1="650.0" y2="650.0" /><line opacity="1" stroke="#000" stroke-width="6.25" x1="937.5" x2="925.0" y1="650.0" y2="637.5" /><line opacity="1" stroke="#000" stroke-width="6.25" x1="937.5" x2="925.0" y1="650.0" y2="662.5" /></svg>